<svg width="64" height="65" viewBox="0 0 64 65" fill="none" xmlns="http://www.w3.org/2000/svg">
<rect y="0.5" width="64" height="64" rx="32" fill="white"/>
<mask id="mask0_79_28" style="mask-type:alpha" maskUnits="userSpaceOnUse" x="14" y="14" width="36" height="37">
<rect x="14" y="14.5" width="36" height="36" fill="#D9D9D9"/>
</mask>
<g mask="url(#mask0_79_28)">
<path d="M21.5 43H23.6375L38.3 28.3375L36.1625 26.2L21.5 40.8625V43ZM18.5 46V39.625L38.3 19.8625C38.6 19.5875 38.9312 19.375 39.2938 19.225C39.6562 19.075 40.0375 19 40.4375 19C40.8375 19 41.225 19.075 41.6 19.225C41.975 19.375 42.3 19.6 42.575 19.9L44.6375 22C44.9375 22.275 45.1563 22.6 45.2938 22.975C45.4313 23.35 45.5 23.725 45.5 24.1C45.5 24.5 45.4313 24.8812 45.2938 25.2437C45.1563 25.6062 44.9375 25.9375 44.6375 26.2375L24.875 46H18.5ZM37.2125 27.2875L36.1625 26.2L38.3 28.3375L37.2125 27.2875Z" fill="#1C1B1F"/>
</g>
</svg>
