<svg width="316" height="163" viewBox="0 0 316 163" fill="none" xmlns="http://www.w3.org/2000/svg">
<path d="M122 52.8V48.816H137.984V52.8H122ZM142.016 52.8V44.832H134V40.8H142.016V32.832H137.984V28.8H146V52.8H142.016ZM118.016 48.816V36.816H113.984V32.832H122V48.816H118.016ZM149.984 24.816V20.832H146V12.816H149.984V16.8H154.016V12.816H158V20.832H154.016V24.816H149.984ZM122.048 20.784V16.8H126.032V20.784H122.048ZM130.016 20.784V16.8H138.032V20.784H130.016ZM126.032 16.8V12.816H130.016V16.8H126.032ZM138.032 16.8V12.816H142.016V16.8H138.032ZM178.016 52.8V36.816H182V52.8H178.016ZM194 52.8V32.832H185.984V28.8H197.984V40.8H206V44.832H197.984V52.8H194ZM161.984 36.816V32.832H178.016V36.816H161.984ZM197.984 24.816V20.832H194V12.816H197.984V16.8H202.016V12.816H206V20.832H202.016V24.816H197.984ZM170.048 20.784V16.8H174.032V20.784H170.048ZM178.016 20.784V16.8H186.032V20.784H178.016ZM174.032 16.8V12.816H178.016V16.8H174.032ZM186.032 16.8V12.816H190.016V16.8H186.032Z" fill="#2E2E2E"/>
<path d="M69.0361 64.592L67.4041 62.384L68.2201 60.992C70.2361 61.904 73.5481 62.384 76.5721 62.384L76.8121 63.824L76.2361 65.936V72.752H77.5321L79.2121 71.984H80.7481C81.9481 72.992 82.9081 75.2 83.3401 77.12L82.6201 77.648L79.7881 77.024H76.2361V80.24L76.8121 81.2C75.7561 82.784 72.0601 84.704 69.6121 85.232L68.3641 83.6L69.0361 82.16V64.592ZM37.7401 81.152L38.2681 80.144L39.7561 79.76C45.8041 76.832 51.1801 73.184 55.4041 68.576H46.0441L44.9401 69.104H43.3561C41.7241 67.664 40.8121 66.128 40.2361 64.016L40.8601 63.44L44.0281 64.016H59.0041L60.6841 63.248H62.2201C63.7081 64.016 64.7641 65.6 65.0041 67.376C63.2761 69.488 61.5481 71.36 59.8681 73.088L66.6841 76.64C66.3001 79.136 64.2361 82.208 62.2201 83.312L60.7321 82.496L60.8761 80.912L55.8841 76.784C51.6601 80.384 47.5801 82.88 43.6921 84.704C41.2441 84.272 38.9401 82.928 37.7401 81.152ZM43.7881 86.912L44.4601 86.288L48.0121 86.864H70.7161L72.3961 86.096H73.9321C75.4681 87.104 76.3321 88.304 76.7161 90.176L75.8041 91.52L75.2761 93.776C75.9961 94.544 76.4281 95.888 76.5241 97.568L75.8041 98.096L72.9721 97.712H53.7721V100.784H73.0681L74.7481 100.016H76.2841C77.3401 100.928 78.3961 102.896 78.8761 105.056L78.1561 105.584L75.3241 104.96H48.5401L46.6681 105.584L45.4201 103.808L46.0921 102.368V97.712C45.0361 96.416 44.6041 95.408 44.4601 93.872L45.1321 93.248L48.2041 93.824H67.5961L68.2201 90.896H49.8361L48.7321 91.472H47.1481C45.3721 90.416 44.5081 89.312 43.7881 86.912ZM115.823 64.592L114.191 62.384L115.007 60.992C116.927 61.856 120.191 62.384 123.359 62.384L123.599 63.824L123.023 65.936V78.656H124.319L125.999 77.888H127.535C128.591 78.8 129.647 80.816 130.127 83.024L129.407 83.552L126.575 82.928H123.023V100.592L123.599 101.552C122.591 103.04 119.087 105.008 116.399 105.584L115.151 103.952L115.823 102.512V64.592ZM84.527 66.56L85.247 65.888L89.087 66.992H95.807V66.032L94.559 63.824L95.375 62.432C97.487 63.392 100.271 63.824 102.623 63.824L102.863 65.264L102.191 66.992H106.943L108.719 66.176H110.399C111.599 67.232 112.655 69.344 113.183 71.504L112.367 72.032L109.343 71.36H91.055L89.855 71.984H88.175C86.159 70.352 85.343 69.008 84.527 66.56ZM86.543 84.32C87.359 76.928 90.671 73.52 99.119 72.512C107.567 73.52 110.879 76.928 111.695 84.32C110.879 91.712 107.567 95.12 99.119 96.128C90.671 95.12 87.359 91.712 86.543 84.32ZM93.983 84.224C93.983 88.496 95.711 90.992 99.119 90.992C102.527 90.992 104.255 88.496 104.255 84.224C104.255 79.952 102.527 77.456 99.119 77.456C95.711 77.456 93.983 79.952 93.983 84.224ZM130.834 81.968L134.386 83.024H170.434L172.114 82.256H173.65C174.658 83.12 175.714 85.28 176.242 87.584L175.522 88.112L172.69 87.488H136.21L135.106 88.064H133.522C131.794 86.576 130.93 85.136 130.162 82.592L130.834 81.968ZM136.018 63.248L136.834 61.856C138.85 62.72 142.114 63.248 145.234 63.248L145.474 64.688L144.898 66.8V74.144H163.906L165.586 73.376H167.122C168.226 74.336 169.234 76.448 169.714 78.656L168.994 79.184L166.162 78.56H140.098L138.226 79.184L136.978 77.552L137.65 76.112V65.456L136.018 63.248ZM136.45 91.664L137.266 90.272C139.186 91.088 142.642 91.664 145.858 91.664L146.098 93.104L145.522 95.216V100.4H164.866L166.546 99.632H168.082C169.09 100.496 170.146 102.704 170.674 105.056L169.954 105.584L167.122 104.96H140.53L138.658 105.584L137.41 103.952L138.082 102.512V93.872L136.45 91.664ZM219.726 64.592L218.094 62.384L218.91 60.992C220.83 61.856 224.094 62.384 227.262 62.384L227.502 63.824L226.926 65.936V81.824L227.502 82.784C226.494 84.272 222.99 86.24 220.302 86.816L219.054 85.184L219.726 83.744V64.592ZM187.47 83.024L187.998 82.016L189.486 81.632C195.774 78.032 201.966 73.616 205.806 68.816H195.774L194.67 69.344H193.086C191.454 67.904 190.542 66.368 189.966 64.256L190.59 63.68L193.758 64.256H209.214L210.894 63.488H212.43C213.918 64.256 214.974 65.84 215.214 67.616C213.438 69.968 211.566 72.128 209.694 74.096L216.894 78.464C216.51 80.96 214.446 84.032 212.43 85.136L210.942 84.32L211.086 82.736L205.662 77.936C201.486 81.632 197.262 84.464 193.422 86.576C190.974 86.144 188.67 84.8 187.47 83.024ZM193.854 89.12L194.67 87.728C196.59 88.544 199.95 89.12 203.166 89.12L203.406 90.56L202.926 92.288H212.67L214.35 91.52H215.886C217.134 92.576 218.046 94.208 218.478 96.08L217.758 96.608L214.926 95.984H202.83V99.536H219.582V91.328L217.95 89.12L218.766 87.728C220.686 88.544 224.046 89.12 227.262 89.12L227.502 90.56L226.926 92.72V100.64L227.502 101.6C226.542 103.04 222.942 105.008 220.158 105.632L218.91 104H201.102C199.614 104.912 197.694 105.728 196.062 106.112L194.814 104.48L195.486 103.04V91.328L193.854 89.12ZM239.153 86.72L242.705 87.296H266.561L268.241 86.528H269.777C271.361 87.536 272.177 88.688 272.561 90.464L271.649 91.808L271.121 94.016C271.889 95.12 272.273 96.224 272.369 97.712L271.649 98.24L268.817 97.856H248.465V100.88H268.433L270.113 100.112H271.649C272.753 101.024 273.761 102.944 274.241 105.056L273.521 105.584L270.689 104.96H243.233L241.361 105.584L240.113 103.952L240.785 102.512V97.856C239.729 96.56 239.297 95.648 239.153 94.112L239.825 93.488L242.897 94.064H263.585L264.209 91.28H244.529L243.425 91.856H241.841C240.017 90.8 239.201 89.696 238.481 87.344L239.153 86.72ZM232.865 79.616L233.585 78.944L237.377 80.048H272.705L274.529 79.232H276.209C277.409 80.24 278.417 82.256 278.945 84.416L278.177 84.992L275.153 84.32H239.345L238.193 84.944H236.465C234.449 83.312 233.633 82.064 232.865 79.616ZM239.057 69.728C239.585 65.744 243.041 62.288 255.905 61.472C268.769 62.288 272.225 65.744 272.753 69.728C272.225 73.712 268.769 77.168 255.905 77.984C243.041 77.168 239.585 73.712 239.057 69.728ZM246.497 69.632C246.497 71.744 249.905 73.088 255.905 73.088C261.905 73.088 265.313 71.744 265.313 69.632C265.313 67.52 261.905 66.176 255.905 66.176C249.905 66.176 246.497 67.52 246.497 69.632Z" fill="#2E2E2E"/>
<path d="M32.5981 134.328C29.9741 134.264 27.8141 133.464 26.1181 131.928C24.4221 130.36 23.5421 128.36 23.4781 125.928C23.5421 123.368 24.4861 121.256 26.3101 119.592C28.1661 117.928 30.5021 117.08 33.3181 117.048C35.4941 117.144 37.4461 118.024 39.1741 119.688C40.9341 121.352 41.8781 123.208 42.0061 125.256C41.9421 127.912 41.0461 130.072 39.3181 131.736C37.6221 133.4 35.3821 134.264 32.5981 134.328ZM32.4541 119.304C30.8221 119.784 29.4941 120.696 28.4701 122.04C27.4461 123.352 26.9821 124.76 27.0781 126.264C27.2701 127.704 27.9261 128.984 29.0461 130.104C30.1661 131.192 31.3821 131.784 32.6941 131.88C33.9421 131.88 35.1101 131.336 36.1981 130.248C37.3181 129.16 38.0381 127.832 38.3581 126.264C38.6781 123.256 36.7101 120.936 32.4541 119.304ZM46.9501 115.032C47.8461 114.648 48.9981 114.152 50.4061 113.544C50.5981 117.16 50.7901 120.696 50.9821 124.152C53.6381 124.024 56.3581 123.88 59.1421 123.72C59.3021 124.104 59.5901 124.744 60.0061 125.64C56.9661 126.184 54.0061 126.696 51.1261 127.176C51.1261 130.088 51.1261 133.16 51.1261 136.392C50.3261 136.744 49.1741 137.256 47.6701 137.928C47.1261 130.216 46.8861 122.584 46.9501 115.032ZM29.3821 157.56C29.3821 150.872 29.3981 144.872 29.4301 139.56C29.9741 139.304 30.9821 138.856 32.4541 138.216C32.7101 142.824 32.9821 148.088 33.2701 154.008C39.3501 153.656 45.4301 153.176 51.5101 152.568C51.7341 153.368 51.9741 154.232 52.2301 155.16C48.7101 156.152 44.9661 156.76 40.9981 156.984C37.0301 157.24 33.1581 157.432 29.3821 157.56ZM98.0754 119.208C98.0434 120.104 98.0274 120.888 98.0274 121.56C98.0274 122.232 97.9154 122.792 97.6914 123.24C94.4594 129.256 91.0834 135.192 87.5634 141.048C87.2434 141.528 86.7634 141.928 86.1234 142.248C85.4834 142.568 84.8434 142.92 84.2034 143.304C83.8194 142.568 83.4994 141.96 83.2434 141.48C86.7954 135.208 90.4434 128.792 94.1874 122.232C92.0434 122.104 90.0594 121.992 88.2354 121.896C85.8674 121.832 83.4994 121.688 81.1314 121.464C80.4594 121.336 79.8354 120.872 79.2594 120.072C82.2674 119.016 85.3074 118.6 88.3794 118.824C91.4834 119.048 94.7154 119.176 98.0754 119.208ZM104.123 114.744C104.635 114.52 105.531 114.152 106.811 113.64C107.355 116.136 107.579 118.632 107.483 121.128C107.419 123.624 107.483 126.168 107.675 128.76C110.523 128.76 113.355 128.76 116.171 128.76C116.427 129.336 116.779 130.152 117.227 131.208C114.059 131.496 110.939 131.784 107.867 132.072C107.867 136.712 107.867 141.544 107.867 146.568C106.875 146.984 105.627 147.528 104.123 148.2C104.123 137.192 104.123 126.04 104.123 114.744ZM144.521 116.952C144.809 123.544 145.065 129.464 145.289 134.712C143.465 135.64 140.841 136.328 137.417 136.776C134.025 137.224 130.825 137.352 127.817 137.16C126.569 135.144 126.025 129.384 126.185 119.88C126.953 119.56 127.897 119.144 129.017 118.632C129.337 119.624 129.641 121.016 129.929 122.808C130.057 123.8 130.201 124.856 130.361 125.976C133.977 125.944 137.529 125.928 141.017 125.928C140.985 123.112 140.969 120.632 140.969 118.488C141.929 118.072 143.113 117.56 144.521 116.952ZM130.841 134.376C134.425 134.12 137.849 133.88 141.113 133.656C141.113 131.928 141.113 130.344 141.113 128.904C137.465 128.936 133.929 128.952 130.505 128.952C130.633 130.68 130.745 132.488 130.841 134.376ZM122.873 147.528C122.489 146.632 122.201 145.992 122.009 145.608C123.673 144.424 125.513 143.88 127.529 143.976C129.577 144.072 131.929 143.88 134.585 143.4C134.393 140.808 134.201 138.072 134.009 135.192C134.745 134.84 135.849 134.312 137.321 133.608C137.833 136.872 138.361 140.152 138.905 143.448C142.521 143.096 146.313 142.904 150.281 142.872C150.281 134.008 150.281 125.064 150.281 116.04C150.857 115.784 151.817 115.336 153.161 114.696C153.801 117.544 154.137 120.376 154.169 123.192C154.201 126.008 154.345 128.824 154.601 131.64C156.649 131.864 158.745 132.088 160.889 132.312C161.081 132.728 161.401 133.464 161.849 134.52C159.385 134.904 157.033 135.272 154.793 135.624C154.793 141 154.793 146.68 154.793 152.664C154.057 153.08 152.873 153.768 151.241 154.728C151.049 151.208 150.873 148.28 150.713 145.944C140.441 146.52 131.161 147.048 122.873 147.528ZM189.866 139.128C188.778 139.672 187.85 140.136 187.082 140.52C185.13 138.504 183.498 136.28 182.186 133.848C180.906 131.416 179.738 128.872 178.682 126.216C177.402 127.816 176.266 129.576 175.274 131.496C174.282 133.384 173.162 135.16 171.914 136.824C170.698 138.488 169.082 139.784 167.066 140.712C166.81 140.008 166.666 139.608 166.634 139.512C170.474 133.016 174.218 126.696 177.866 120.552C177.706 120.424 177.546 120.28 177.386 120.12C178.218 119.736 179.13 119.32 180.122 118.872C180.666 122.84 181.834 126.456 183.626 129.72C185.45 132.952 187.53 136.088 189.866 139.128ZM196.058 127.704C196.058 123.992 196.058 120.152 196.058 116.184C196.986 115.8 198.042 115.352 199.226 114.84C199.642 115.896 199.914 116.904 200.042 117.864C200.202 127.432 200.33 137.016 200.426 146.616C200.394 146.84 200.33 147.128 200.234 147.48C199.37 147.832 198.17 148.328 196.634 148.968C196.634 143.08 196.634 137.16 196.634 131.208C193.466 131.208 190.458 131.208 187.61 131.208C187.354 130.76 186.954 130.008 186.41 128.952C189.706 128.504 192.922 128.088 196.058 127.704ZM246.436 139.656C245.444 140.072 244.292 140.552 242.98 141.096C242.916 140.488 242.836 139.928 242.74 139.416C242.644 138.904 242.612 138.424 242.644 137.976C243.06 133.08 243.524 127.896 244.036 122.424C237.476 122.424 231.06 122.424 224.788 122.424C224.34 121.56 223.956 120.824 223.636 120.216C225.044 119.608 226.356 119.224 227.572 119.064C234.26 119.032 240.932 119.016 247.588 119.016C248.132 120.264 248.42 121.16 248.452 121.704C247.844 127.592 247.172 133.576 246.436 139.656ZM252.004 143.976C252.26 144.616 252.564 145.336 252.916 146.136C251.156 146.68 249.492 147.032 247.924 147.192C239.38 147.192 230.836 147.144 222.292 147.048C221.716 147.016 221.092 146.968 220.42 146.904C220.228 146.456 219.94 145.8 219.556 144.936C221.316 144.456 222.948 144.152 224.452 144.024C233.508 143.992 242.692 143.976 252.004 143.976ZM274.273 127.8C272.129 129.016 270.001 129.544 267.889 129.384C265.809 129.192 263.745 129.192 261.697 129.384C261.697 132.168 261.697 134.952 261.697 137.736C266.465 137.736 271.361 137.736 276.385 137.736C276.513 137.928 276.769 138.408 277.153 139.176C274.145 140.424 271.105 141.032 268.033 141C264.993 140.936 261.953 141.016 258.913 141.24C258.017 138.968 257.617 136.712 257.713 134.472C257.809 132.2 257.825 129.944 257.761 127.704C259.777 126.424 261.841 125.912 263.953 126.168C266.097 126.424 268.257 126.44 270.433 126.216C270.561 124.424 270.721 122.28 270.913 119.784C267.201 119.784 263.585 119.784 260.065 119.784C259.393 119.72 258.769 119.368 258.193 118.728C259.921 117.736 261.665 117.192 263.425 117.096C265.185 116.968 266.977 116.984 268.801 117.144C270.625 117.304 272.449 117.304 274.273 117.144C274.273 120.856 274.273 124.408 274.273 127.8ZM289.249 149.88C289.249 143.992 289.249 138.168 289.249 132.408C287.521 132.28 285.969 132.152 284.593 132.024C284.593 136.632 284.593 141.288 284.593 145.992C283.793 146.376 282.609 146.92 281.041 147.624C280.721 137.352 280.401 127.208 280.081 117.192C280.849 116.84 282.001 116.328 283.536 115.656C283.857 120.296 284.193 124.808 284.545 129.192C285.985 129.192 287.329 129.192 288.577 129.192C288.577 124.808 288.577 120.264 288.577 115.56C289.025 115.368 289.873 115 291.121 114.456C291.665 116.184 292.017 117.816 292.177 119.352C292.369 126.168 292.481 133 292.513 139.848C292.513 142.6 292.513 145.448 292.513 148.392C291.713 148.744 290.625 149.24 289.249 149.88Z" fill="#2E2E2E"/>
</svg>
