<svg width="24" height="25" viewBox="0 0 24 25" fill="none" xmlns="http://www.w3.org/2000/svg">
<mask id="mask0_79_53" style="mask-type:alpha" maskUnits="userSpaceOnUse" x="0" y="0" width="24" height="25">
<rect y="0.5" width="24" height="24" fill="#D9D9D9"/>
</mask>
<g mask="url(#mask0_79_53)">
<path d="M18 21.5H7V8.5L14 1.5L15.25 2.75C15.3667 2.86667 15.4625 3.025 15.5375 3.225C15.6125 3.425 15.65 3.61667 15.65 3.8V4.15L14.55 8.5H21C21.5333 8.5 22 8.7 22.4 9.1C22.8 9.5 23 9.96667 23 10.5V12.5C23 12.6167 22.9833 12.7417 22.95 12.875C22.9167 13.0083 22.8833 13.1333 22.85 13.25L19.85 20.3C19.7 20.6333 19.45 20.9167 19.1 21.15C18.75 21.3833 18.3833 21.5 18 21.5ZM9 19.5H18L21 12.5V10.5H12L13.35 5L9 9.35V19.5ZM7 8.5V10.5H4V19.5H7V21.5H2V8.5H7Z" fill="#FFB800"/>
</g>
</svg>
