<svg width="64" height="65" viewBox="0 0 64 65" fill="none" xmlns="http://www.w3.org/2000/svg">
<rect y="0.5" width="64" height="64" rx="32" fill="#FFB800"/>
<mask id="mask0_79_26" style="mask-type:alpha" maskUnits="userSpaceOnUse" x="14" y="14" width="36" height="37">
<rect x="14" y="14.5" width="36" height="36" fill="#D9D9D9"/>
</mask>
<g mask="url(#mask0_79_26)">
<path d="M41 46H24.5V26.5L35 16L36.875 17.875C37.05 18.05 37.1938 18.2875 37.3063 18.5875C37.4188 18.8875 37.475 19.175 37.475 19.45V19.975L35.825 26.5H45.5C46.3 26.5 47 26.8 47.6 27.4C48.2 28 48.5 28.7 48.5 29.5V32.5C48.5 32.675 48.475 32.8625 48.425 33.0625C48.375 33.2625 48.325 33.45 48.275 33.625L43.775 44.2C43.55 44.7 43.175 45.125 42.65 45.475C42.125 45.825 41.575 46 41 46ZM27.5 43H41L45.5 32.5V29.5H32L34.025 21.25L27.5 27.775V43ZM24.5 26.5V29.5H20V43H24.5V46H17V26.5H24.5Z" fill="#1C1B1F"/>
</g>
</svg>
