<svg width="80" height="81" viewBox="0 0 80 81" fill="none" xmlns="http://www.w3.org/2000/svg">
<g filter="url(#filter0_d_79_26)">
<rect x="8" y="8.5" width="64" height="64" rx="32" fill="#FFB800" shape-rendering="crispEdges"/>
<mask id="mask0_79_26" style="mask-type:alpha" maskUnits="userSpaceOnUse" x="22" y="22" width="36" height="37">
<rect x="22" y="22.5" width="36" height="36" fill="#D9D9D9"/>
</mask>
<g mask="url(#mask0_79_26)">
<path d="M49 54H32.5V34.5L43 24L44.875 25.875C45.05 26.05 45.1938 26.2875 45.3063 26.5875C45.4188 26.8875 45.475 27.175 45.475 27.45V27.975L43.825 34.5H53.5C54.3 34.5 55 34.8 55.6 35.4C56.2 36 56.5 36.7 56.5 37.5V40.5C56.5 40.675 56.475 40.8625 56.425 41.0625C56.375 41.2625 56.325 41.45 56.275 41.625L51.775 52.2C51.55 52.7 51.175 53.125 50.65 53.475C50.125 53.825 49.575 54 49 54ZM35.5 51H49L53.5 40.5V37.5H40L42.025 29.25L35.5 35.775V51ZM32.5 34.5V37.5H28V51H32.5V54H25V34.5H32.5Z" fill="#1C1B1F"/>
</g>
</g>
<defs>
<filter id="filter0_d_79_26" x="0" y="0.5" width="80" height="80" filterUnits="userSpaceOnUse" color-interpolation-filters="sRGB">
<feFlood flood-opacity="0" result="BackgroundImageFix"/>
<feColorMatrix in="SourceAlpha" type="matrix" values="0 0 0 0 0 0 0 0 0 0 0 0 0 0 0 0 0 0 127 0" result="hardAlpha"/>
<feOffset/>
<feGaussianBlur stdDeviation="4"/>
<feComposite in2="hardAlpha" operator="out"/>
<feColorMatrix type="matrix" values="0 0 0 0 0 0 0 0 0 0 0 0 0 0 0 0 0 0 0.25 0"/>
<feBlend mode="normal" in2="BackgroundImageFix" result="effect1_dropShadow_79_26"/>
<feBlend mode="normal" in="SourceGraphic" in2="effect1_dropShadow_79_26" result="shape"/>
</filter>
</defs>
</svg>
